<svg id="visual" viewBox="0 0 1536 770" width="1536" height="770" xmlns="http://www.w3.org/2000/svg" xmlns:xlink="http://www.w3.org/1999/xlink" version="1.1"><rect x="0" y="0" width="1536" height="770" fill="#001220"></rect><path d="M0 474L36.5 471.5C73 469 146 464 219.2 461.7C292.3 459.3 365.7 459.7 438.8 476.3C512 493 585 526 658.2 532.5C731.3 539 804.7 519 877.8 503.8C951 488.7 1024 478.3 1097.2 471C1170.3 463.7 1243.7 459.3 1316.8 468.3C1390 477.3 1463 499.7 1499.5 510.8L1536 522L1536 771L1499.5 771C1463 771 1390 771 1316.8 771C1243.7 771 1170.3 771 1097.2 771C1024 771 951 771 877.8 771C804.7 771 731.3 771 658.2 771C585 771 512 771 438.8 771C365.7 771 292.3 771 219.2 771C146 771 73 771 36.5 771L0 771Z" fill="#028090"></path><path d="M0 598L36.5 599.2C73 600.3 146 602.7 219.2 597C292.3 591.3 365.7 577.7 438.8 577.2C512 576.7 585 589.3 658.2 597.7C731.3 606 804.7 610 877.8 610.3C951 610.7 1024 607.3 1097.2 600C1170.3 592.7 1243.7 581.3 1316.8 577C1390 572.7 1463 575.3 1499.5 576.7L1536 578L1536 771L1499.5 771C1463 771 1390 771 1316.8 771C1243.7 771 1170.3 771 1097.2 771C1024 771 951 771 877.8 771C804.7 771 731.3 771 658.2 771C585 771 512 771 438.8 771C365.7 771 292.3 771 219.2 771C146 771 73 771 36.5 771L0 771Z" fill="#057285"></path><path d="M0 623L36.5 622C73 621 146 619 219.2 623.3C292.3 627.7 365.7 638.3 438.8 641.5C512 644.7 585 640.3 658.2 627.3C731.3 614.3 804.7 592.7 877.8 581C951 569.3 1024 567.7 1097.2 570.5C1170.3 573.3 1243.7 580.7 1316.8 584.2C1390 587.7 1463 587.3 1499.5 587.2L1536 587L1536 771L1499.5 771C1463 771 1390 771 1316.8 771C1243.7 771 1170.3 771 1097.2 771C1024 771 951 771 877.8 771C804.7 771 731.3 771 658.2 771C585 771 512 771 438.8 771C365.7 771 292.3 771 219.2 771C146 771 73 771 36.5 771L0 771Z" fill="#0a6579"></path><path d="M0 644L36.5 647.7C73 651.3 146 658.7 219.2 667C292.3 675.3 365.7 684.7 438.8 678.7C512 672.7 585 651.3 658.2 643C731.3 634.7 804.7 639.3 877.8 640C951 640.7 1024 637.3 1097.2 639.5C1170.3 641.7 1243.7 649.3 1316.8 654.3C1390 659.3 1463 661.7 1499.5 662.8L1536 664L1536 771L1499.5 771C1463 771 1390 771 1316.8 771C1243.7 771 1170.3 771 1097.2 771C1024 771 951 771 877.8 771C804.7 771 731.3 771 658.2 771C585 771 512 771 438.8 771C365.7 771 292.3 771 219.2 771C146 771 73 771 36.5 771L0 771Z" fill="#0e586c"></path><path d="M0 712L36.5 713C73 714 146 716 219.2 715.2C292.3 714.3 365.7 710.7 438.8 707C512 703.3 585 699.7 658.2 701.3C731.3 703 804.7 710 877.8 706.8C951 703.7 1024 690.3 1097.2 688.7C1170.3 687 1243.7 697 1316.8 700.5C1390 704 1463 701 1499.5 699.5L1536 698L1536 771L1499.5 771C1463 771 1390 771 1316.8 771C1243.7 771 1170.3 771 1097.2 771C1024 771 951 771 877.8 771C804.7 771 731.3 771 658.2 771C585 771 512 771 438.8 771C365.7 771 292.3 771 219.2 771C146 771 73 771 36.5 771L0 771Z" fill="#114b5f"></path></svg>